<svg xmlns="http://www.w3.org/2000/svg" viewBox="0 0 405.89 512"><g id="Layer_2" data-name="Layer 2"><g id="Capa_1" data-name="Capa 1"><path d="M385.89,352a20,20,0,0,0,20-20V80a80.09,80.09,0,0,0-80-80H80A80.09,80.09,0,0,0,0,80V432a80.09,80.09,0,0,0,80,80H325.89a80.09,80.09,0,0,0,80-80,20,20,0,0,0-40,0,40,40,0,0,1-40,40H80a40,40,0,0,1-40-40V80A40,40,0,0,1,80,40H325.89a40,40,0,0,1,40,40V332A20,20,0,0,0,385.89,352Z"/><path d="M305.89,120h-206a20,20,0,1,0,0,40h206a20,20,0,0,0,0-40Z"/><path d="M305.89,200h-206a20,20,0,1,0,0,40h206a20,20,0,0,0,0-40Z"/><path d="M225,280H99.89a20,20,0,1,0,0,40H225a20,20,0,0,0,0-40Z"/></g></g></svg>