<svg xmlns="http://www.w3.org/2000/svg" viewBox="0 0 36.67 41.92"><defs><style>.cls-1{fill:#353535;}</style></defs><g id="Layer_2" data-name="Layer 2"><g id="Layer_1-2" data-name="Layer 1"><path class="cls-1" d="M6.13,38.51c-.9,0-2.4-.41-2.4-1.67V2.41a2.41,2.41,0,1,1,4.81,0v2a.63.63,0,0,1-1.25,0v-2A1.16,1.16,0,1,0,5,2.41V36.84c0,.2.66.4,1.18.42,1.14,0,1.14-.13,1.14-.42V9.07a.63.63,0,0,1,1.25,0V36.84C8.54,38.51,6.91,38.51,6.13,38.51Z"/><path class="cls-1" d="M6.13,41.92C2.64,41.92,0,40.53,0,38.69c0-1.43,1.55-2.6,4-3a.62.62,0,0,1,.22,1.23c-2,.36-3,1.19-3,1.82,0,.93,2.09,2,4.88,2s4.89-1.05,4.89-2c0-.65-1.12-1.52-3.2-1.86A.62.62,0,1,1,8,35.6c2.58.42,4.25,1.63,4.25,3.09C12.27,40.53,9.63,41.92,6.13,41.92Z"/><path class="cls-1" d="M7.92,28.56a.63.63,0,0,1-.21-1.22l9-3.21V14.64a.61.61,0,0,1,.83-.58l4.1,1.45V10l-14-5a.62.62,0,0,1-.38-.8.62.62,0,0,1,.8-.38L22.5,8.94a.64.64,0,0,1,.42.59V16.4a.6.6,0,0,1-.27.5.61.61,0,0,1-.57.08L18,15.53v9a.63.63,0,0,1-.42.59L8.13,28.52A.86.86,0,0,1,7.92,28.56Z"/><path class="cls-1" d="M17.36,28.56a.62.62,0,0,1-.36-.12.64.64,0,0,1-.26-.51V14.64a.61.61,0,0,1,.83-.58L36.26,20.7a.62.62,0,0,1,.41.59.63.63,0,0,1-.41.59L17.57,28.52A.78.78,0,0,1,17.36,28.56Zm.63-13V27.05l16.2-5.76Z"/><path class="cls-1" d="M17.36,15.27a.63.63,0,0,1-.45-1.06L21.84,9.1a.62.62,0,0,1,.9.86l-4.93,5.12A.64.64,0,0,1,17.36,15.27Z"/></g></g></svg>