<svg width="283" height="283" viewBox="0 0 283 283" fill="none" xmlns="http://www.w3.org/2000/svg">
<path d="M256.469 123.812C258.814 123.812 261.064 122.881 262.722 121.222C264.381 119.564 265.312 117.314 265.312 114.969V70.75C265.312 66.059 263.449 61.5601 260.132 58.243C256.815 54.926 252.316 53.0625 247.625 53.0625H35.375C30.684 53.0625 26.1851 54.926 22.868 58.243C19.551 61.5601 17.6875 66.059 17.6875 70.75V114.969C17.6875 117.314 18.6192 119.564 20.2778 121.222C21.9363 122.881 24.1857 123.812 26.5312 123.812C31.2223 123.812 35.7212 125.676 39.0382 128.993C42.3553 132.31 44.2187 136.809 44.2188 141.5C44.2187 146.191 42.3553 150.69 39.0382 154.007C35.7212 157.324 31.2223 159.188 26.5312 159.188C24.1857 159.188 21.9363 160.119 20.2778 161.778C18.6192 163.436 17.6875 165.686 17.6875 168.031V212.25C17.6875 216.941 19.551 221.44 22.868 224.757C26.1851 228.074 30.684 229.938 35.375 229.938H247.625C252.316 229.938 256.815 228.074 260.132 224.757C263.449 221.44 265.312 216.941 265.312 212.25V168.031C265.312 165.686 264.381 163.436 262.722 161.778C261.064 160.119 258.814 159.188 256.469 159.188C251.778 159.188 247.279 157.324 243.962 154.007C240.645 150.69 238.781 146.191 238.781 141.5C238.781 136.809 240.645 132.31 243.962 128.993C247.279 125.676 251.778 123.812 256.469 123.812V123.812ZM247.625 175.725V212.25H185.719V185.719H168.031V212.25H35.375V175.725C42.9452 173.747 49.6458 169.314 54.4282 163.121C59.2105 156.928 61.8047 149.325 61.8047 141.5C61.8047 133.675 59.2105 126.072 54.4282 119.879C49.6458 113.686 42.9452 109.253 35.375 107.275V70.75H168.031V97.2812H185.719V70.75H247.625V107.275C240.055 109.253 233.354 113.686 228.572 119.879C223.789 126.072 221.195 133.675 221.195 141.5C221.195 149.325 223.789 156.928 228.572 163.121C233.354 169.314 240.055 173.747 247.625 175.725V175.725Z" fill="black"/>
<path d="M168.031 114.969H185.719V168.031H168.031V114.969Z" fill="black"/>
</svg>
