<svg xmlns="http://www.w3.org/2000/svg" viewBox="0 0 32.64 27.64"><defs><style>.cls-1{fill:#666;fill-rule:evenodd;}</style></defs><g id="Layer_2" data-name="Layer 2"><g id="Layer_1-2" data-name="Layer 1"><path class="cls-1" d="M9.24,5.59c7.21.27,13.59.47,20.83.81,1.14,0,2.15,0,2.46.57s0,1.39-.11,2l-.35,2a25.73,25.73,0,0,1-.74,4,3.83,3.83,0,0,1-2.64,2.35,30.1,30.1,0,0,1-4.36.46c-3.6.31-7.17.62-11,1-1.25.12-2.28.29-3-.34S9.34,15.77,9,14.6l-2.24-8C6.42,5.37,6.26,3.42,5.34,3,4,2.29,0,3.41,0,1.29,0-.41,1.94,0,3.5.14,5.72.33,7.12.63,8,2,8.7,3.06,8.66,4.3,9.24,5.59Zm1.95,5.34c.63.21,3.61.25,4.13-.11a1.92,1.92,0,0,0-.11-2.59A5.53,5.53,0,0,0,13,8.06a10.68,10.68,0,0,0-2.41,0C9.68,8.38,10.22,10.61,11.19,10.93Zm7.17-.06a8.41,8.41,0,0,0,4,0,1.67,1.67,0,0,0,.23-2c-.4-.57-3.16-.68-4-.46A1.55,1.55,0,0,0,18.36,10.87Zm7.17.06a9.68,9.68,0,0,0,3.56,0,1.36,1.36,0,0,0,.75-1.78c-.29-.66-3.28-.69-4-.57A1.25,1.25,0,0,0,25.53,10.93ZM11.36,13.8a5.33,5.33,0,0,0,.52,2.12c.38.59,2.41.66,3.21.29s.9-2.47.23-2.93A6.65,6.65,0,0,0,12,13.17.87.87,0,0,0,11.36,13.8Zm6.6-.17a2.16,2.16,0,0,0,.29,2.12,10.7,10.7,0,0,0,3.84-.17,1.55,1.55,0,0,0,.57-1.9c-.3-.75-3.12-.75-4-.51A1,1,0,0,0,18,13.63ZM25,14.89c.33.48,2.3.4,3.09.17.53-.15,1.32-.86,1.1-1.55s-3-.51-3.56-.34A1.15,1.15,0,0,0,25,14.89Z"/><path class="cls-1" d="M14.17,20.74A3.47,3.47,0,1,1,15,27.63a3.52,3.52,0,0,1-3.85-3.85A3.39,3.39,0,0,1,14.17,20.74Zm.69,4.71c1.46-.23,1.29-2.93-.57-2.53C12.61,23.29,13.3,25.69,14.86,25.45Z"/><path class="cls-1" d="M24.56,20.74a3.71,3.71,0,0,1,2.41.52,3.68,3.68,0,0,1,1,4.82,3.53,3.53,0,0,1-6.42-1.9,3.06,3.06,0,0,1,1-2.52A3.41,3.41,0,0,1,24.56,20.74Zm.11,4.71c2,.39,2.22-2.8.17-2.59-.05,0-.09.06-.11.06A1.32,1.32,0,0,0,24.67,25.45Z"/></g></g></svg>