<svg xmlns="http://www.w3.org/2000/svg" viewBox="0 0 23.74 23.02"><defs><style>.cls-1,.cls-2{fill:#666;}.cls-2{fill-rule:evenodd;}</style></defs><g id="Layer_2" data-name="Layer 2"><g id="Layer_1-2" data-name="Layer 1"><path class="cls-1" d="M7.72,13.67c.43.28-.2-.2.18.13.12.1.23.22.34.33s.2.24.3.36c-.21-.26.16.23.2.27a9.63,9.63,0,0,0,1.45,1.79A1.68,1.68,0,0,0,13,15.81c.2-.62.42-1.24.65-1.85.05-.13.1-.27.16-.41l.12-.29c.15-.37.32-.74.49-1.11a26.88,26.88,0,0,1,2.21-3.91l.26-.39s.4-.53.21-.28c.22-.29.45-.57.68-.84a16.32,16.32,0,0,1,1.6-1.62l.35-.28c.15-.13.15-.13,0,0l.24-.18c.28-.2.57-.39.86-.56a9.93,9.93,0,0,1,.91-.49L22,3.46h0l.55-.2a1.66,1.66,0,0,0,1.17-2,1.66,1.66,0,0,0-2-1.17c-6.38,2.12-9.95,8.86-11.9,14.87l2.75-.74-.3-.29c-.05-.05-.41-.5-.19-.21-.21-.28-.41-.57-.61-.86a7.58,7.58,0,0,0-2-2,1.66,1.66,0,0,0-2.26.6,1.69,1.69,0,0,0,.61,2.26Z"/><path class="cls-2" d="M22.55,4.74h0A15.39,15.39,0,0,0,20.77,6.6a105.75,105.75,0,0,1-.07,13.8,159.08,159.08,0,0,1-18.27,0c-.37-1.4-.21-4.81-.21-7.1,0-1.64-.22-6.26.32-7,2.25-.15,6.18-.24,8.3-.26,1.33-1.28,1.52-1.51,2.29-2.36H7.82a34.41,34.41,0,0,0-3.8,0C-.85,3.05.11,8.26.11,13.19c0,4.59-.89,9.14,2.43,9.83H20.85c3.15-.74,2.32-4.9,2.32-9.61C23.17,10.1,23.68,6.52,22.55,4.74Z"/></g></g></svg>