<svg xmlns="http://www.w3.org/2000/svg" viewBox="0 0 46.13 34.71"><defs><style>.cls-1{fill:#353535;}</style></defs><g id="Layer_2" data-name="Layer 2"><g id="Layer_1-2" data-name="Layer 1"><path class="cls-1" d="M20.07,34.71a.65.65,0,0,1-.46-.19L12,26.93A.65.65,0,1,1,13,26l7.12,7.12,24-24a2.63,2.63,0,0,0,0-3.71L40.69,2.08a2.63,2.63,0,0,0-3.72,0L20.53,18.51a.64.64,0,0,1-.92,0L9.16,8.06a2.63,2.63,0,0,0-3.72,0L2.08,11.42a2.63,2.63,0,0,0,0,3.72l8.19,8.2a.64.64,0,0,1,0,.92.66.66,0,0,1-.92,0l-8.2-8.2A3.91,3.91,0,0,1,0,13.28a4,4,0,0,1,1.15-2.79L4.52,7.13a3.94,3.94,0,0,1,5.56,0l10,10,16-16a3.94,3.94,0,0,1,5.56,0L45,4.51a3.94,3.94,0,0,1,0,5.57L20.53,34.52A.62.62,0,0,1,20.07,34.71Z"/></g></g></svg>