<svg xmlns="http://www.w3.org/2000/svg" viewBox="0 0 314.03 512"><g id="Layer_2" data-name="Layer 2"><g id="Capa_1" data-name="Capa 1"><circle cx="157" cy="492" r="20" transform="translate(-353.8 568.16) rotate(-80.78)"/><path d="M314,155.77C313.34,69.76,243.16,0,157,0,70.43,0,0,70.43,0,157a20,20,0,0,0,40,0,117,117,0,0,1,234,0c0,.36,0,.71,0,1.06a117,117,0,0,1-71.12,106.66c-40,17.1-65.91,56.68-65.91,100.84V412a20,20,0,0,0,40,0V365.56c0-28.11,16.33-53.26,41.61-64.05A156.87,156.87,0,0,0,314,157Q314,156.39,314,155.77Z"/></g></g></svg>