<svg xmlns="http://www.w3.org/2000/svg" viewBox="0 0 28.13 28.06"><defs><style>.cls-1{fill:#666;}</style></defs><g id="Layer_2" data-name="Layer 2"><g id="Layer_1-2" data-name="Layer 1"><path class="cls-1" d="M.47,14.14a.48.48,0,0,1-.33-.82L13.74.13a.49.49,0,0,1,.66,0l3.92,3.81V1.64a.48.48,0,0,1,.47-.48h3.72a.48.48,0,0,1,.47.48V8.46l5,4.86a.47.47,0,1,1-.66.68L22.18,9A.47.47,0,0,1,22,8.66V2.11H19.27V5.06a.48.48,0,0,1-.81.34L14.07,1.14.81,14A.51.51,0,0,1,.47,14.14Z"/><path class="cls-1" d="M23.82,28.06H17.71a.48.48,0,0,1-.48-.48V17.83H10.9v9.75a.48.48,0,0,1-.47.48H4.31a.49.49,0,0,1-.48-.48V13.35a.48.48,0,0,1,.48-.47.47.47,0,0,1,.47.47V27.11H10V17.36a.48.48,0,0,1,.48-.48h7.28a.48.48,0,0,1,.47.48v9.75h5.17V13.74a.48.48,0,0,1,.95,0V27.58A.48.48,0,0,1,23.82,28.06Z"/></g></g></svg>