<svg xmlns="http://www.w3.org/2000/svg" viewBox="0 0 45.9 37.48"><defs><style>.cls-1{fill:#353535;}</style></defs><g id="Layer_2" data-name="Layer 2"><g id="Layer_1-2" data-name="Layer 1"><path class="cls-1" d="M4.56,31.59a.78.78,0,0,1-.77-.88l.74-5.33H.77A.78.78,0,0,1,0,24.6V.77A.78.78,0,0,1,.77,0H35.84a.77.77,0,0,1,.77.77V5.25a.77.77,0,0,1-.77.78.78.78,0,0,1-.78-.78V1.55H1.55V23.83H5.42a.78.78,0,0,1,.77.88l-.57,4.11L10.93,24a.75.75,0,0,1,.52-.2h1.8a.76.76,0,0,1,.77.77.77.77,0,0,1-.77.78H11.74l-6.66,6A.72.72,0,0,1,4.56,31.59Z"/><path class="cls-1" d="M40.41,37.48a.79.79,0,0,1-.46-.15l-9.5-7H18a.78.78,0,0,1-.78-.78V13.72A.77.77,0,0,1,18,13a.76.76,0,0,1,.77.77v15h12a.75.75,0,0,1,.46.15l8.3,6.16L39,29.59a.81.81,0,0,1,.19-.6.79.79,0,0,1,.58-.25h4.63V10.33H22.87a.76.76,0,0,1-.77-.77.77.77,0,0,1,.77-.78H45.12a.78.78,0,0,1,.78.78v20a.78.78,0,0,1-.78.78H40.57l.61,6.34a.76.76,0,0,1-.39.75A.75.75,0,0,1,40.41,37.48Z"/></g></g></svg>