<svg xmlns="http://www.w3.org/2000/svg" viewBox="0 0 28.16 28.48"><defs><style>.cls-1{fill:#666;}</style></defs><g id="Layer_2" data-name="Layer 2"><g id="Layer_1-2" data-name="Layer 1"><path class="cls-1" d="M27.29,6H26a.87.87,0,0,0-.74.42H21.79a10.92,10.92,0,0,0-2.23-3.16A11.26,11.26,0,0,0,11.6,0,11.25,11.25,0,0,0,1.22,6.84a11.12,11.12,0,0,0,0,8.72,11.25,11.25,0,0,0,6,6l.6.23L5.14,26.17H1a1,1,0,0,0-1,1v.33a1,1,0,0,0,1,1H22.26a1,1,0,0,0,1-1v-.33a1,1,0,0,0-1-1H18l-2.5-4.45.5-.2A11.2,11.2,0,0,0,22.86,11.2a10.86,10.86,0,0,0-.67-3.8H25.3a.89.89,0,0,0,.71.37h1.28a.88.88,0,0,0,0-1.75ZM13.5,10.79a1.78,1.78,0,0,0-.25-.64l5.5-5.5a9.62,9.62,0,0,1,2.56,6.14Zm4.7-6.68L12.72,9.59A2,2,0,0,0,12,9.3V1.54A9.77,9.77,0,0,1,18.2,4.11Zm-7-2.57V9.33a1.94,1.94,0,0,0-.7.36L5,4.14A9.72,9.72,0,0,1,11.22,1.54ZM4.42,4.68,10,10.3a1.58,1.58,0,0,0-.17.49h-8A9.59,9.59,0,0,1,4.42,4.68ZM1.88,11.56h8a2.17,2.17,0,0,0,.27.6L4.51,17.81A9.6,9.6,0,0,1,1.88,11.56Zm3.18,6.79,5.65-5.66a1.92,1.92,0,0,0,.51.22v7.94A9.67,9.67,0,0,1,5.06,18.35Zm11,7.82H7.14l2.33-4a11.64,11.64,0,0,0,2.13.2,12,12,0,0,0,2.15-.2Zm-4-5.32V12.94a1.77,1.77,0,0,0,.52-.17l5.6,5.6A9.67,9.67,0,0,1,12,20.85Zm6.67-3-5.55-5.54a1.81,1.81,0,0,0,.37-.73h7.84A9.61,9.61,0,0,1,18.66,17.83Z"/><path class="cls-1" d="M8.46,11.35A1.52,1.52,0,1,1,6.94,9.84,1.52,1.52,0,0,1,8.46,11.35Z"/><path class="cls-1" d="M5.8,13.61a1.52,1.52,0,1,1-1.52-1.52A1.52,1.52,0,0,1,5.8,13.61Z"/><path class="cls-1" d="M9.23,15.16a1.51,1.51,0,1,1-1.51-1.51A1.51,1.51,0,0,1,9.23,15.16Z"/><path class="cls-1" d="M10,18.39A1.52,1.52,0,1,1,8.5,16.88,1.52,1.52,0,0,1,10,18.39Z"/><path class="cls-1" d="M13.25,18.19a1.52,1.52,0,1,1-1.52-1.51A1.52,1.52,0,0,1,13.25,18.19Z"/><path class="cls-1" d="M14.19,15.29a1.52,1.52,0,1,1-1.52-1.52A1.52,1.52,0,0,1,14.19,15.29Z"/><path class="cls-1" d="M17.46,18.19A1.52,1.52,0,1,1,16,16.68,1.52,1.52,0,0,1,17.46,18.19Z"/><path class="cls-1" d="M20,14.05a1.52,1.52,0,1,1-1.51-1.51A1.52,1.52,0,0,1,20,14.05Z"/></g></g></svg>