<svg xmlns="http://www.w3.org/2000/svg" viewBox="0 0 29.8 30.28"><defs><style>.cls-1{fill:#fff;}</style></defs><g id="Layer_2" data-name="Layer 2"><g id="Layer_1-2" data-name="Layer 1"><path class="cls-1" d="M14.11,14.38l-1.4-.29a14.18,14.18,0,0,0-1.46-.37l-1.73-.35A12.59,12.59,0,0,1,3.38,10.1,4.36,4.36,0,0,1,2.07,7.6a3.89,3.89,0,0,1,.56-2.4A2.9,2.9,0,0,1,4.35,3.81a2.6,2.6,0,0,1,2.39.85.51.51,0,0,0,.87-.36C7.55,2.87,7.47,1.07,9,.32,10.73-.57,12.91.52,14,2c1.29,1.71,1.2,4,1.15,6a35,35,0,0,1-.24,3.69c-.09.63-.25,1.25-.36,1.87"/><path class="cls-1" d="M13.46,18.44a18.61,18.61,0,0,1-.76,2.25c-.21.55-.45,1.09-.68,1.63-.12.26-.25.51-.38.76a8.91,8.91,0,0,1-3.93,3.73,3.77,3.77,0,0,1-4.18-1A2.61,2.61,0,0,1,2.8,24,2.62,2.62,0,0,1,4,22a.51.51,0,0,0-.26-.94c-1.36-.18-3.13-.39-3.6-1.91a4.22,4.22,0,0,1,2.09-4.59c1.81-1.12,4.06-.75,6-.4l1.22.22c.73.15,1.47.29,2.2.46a8.79,8.79,0,0,1,.88.24c.42.13.83.27,1.25.37s.28-.12,0,.91C13.72,17.06,13.63,17.76,13.46,18.44Z"/><path class="cls-1" d="M26.38,20.44A4.34,4.34,0,0,1,27.6,23,4,4,0,0,1,27,25.36a3,3,0,0,1-1.78,1.32,2.58,2.58,0,0,1-2.35-.94.51.51,0,0,0-.87.36c0,1.39,0,3.29-1.49,3.92-1.84.77-3.91-.29-5-1.82a7.36,7.36,0,0,1-1-4.61c0-.49,0-1,.07-1.45s.07-1.16.12-1.75.12-1.29.23-1.94.27-1.16.4-1.74c.18-1.41.18-1.14.31-1C19.4,16.71,23.68,17.38,26.38,20.44Z"/><path class="cls-1" d="M27.7,15.18c-1.78,1.17-4,.89-6,.6-1.15-.16-2.3-.35-3.44-.56-.66-.13-1.28-.36-1.92-.51.2-.13-.67.13-.34-.7.13-.77.19-1.56.36-2.32a26.67,26.67,0,0,1,1.31-3.9,8.91,8.91,0,0,1,4.16-4.66A3.78,3.78,0,0,1,26,4a2.6,2.6,0,0,1,.79,1.83,2.74,2.74,0,0,1-1.22,2c-.39.31,0,.83.36.87,1.35.12,3.15.27,3.67,1.78A4.22,4.22,0,0,1,27.7,15.18Z"/></g></g></svg>